<svg aria-hidden="true" style="position: absolute; width: 0; height: 0; overflow: hidden;" version="1.1" xmlns="http://www.w3.org/2000/svg" xmlns:xlink="http://www.w3.org/1999/xlink">
<defs>
<symbol id="icon-trash" viewBox="0 0 32 32">
<path stroke-linejoin="round" stroke-linecap="round" stroke-miterlimit="4" stroke-width="3.2" d="M11.6 2.8h8.8M2.8 7.2h26.4M26.267 7.2l-1.029 15.428c-0.154 2.315-0.232 3.472-0.731 4.35-0.44 0.772-1.104 1.394-1.904 1.781-0.909 0.44-2.069 0.44-4.389 0.44h-4.427c-2.32 0-3.48 0-4.389-0.44-0.8-0.388-1.464-1.009-1.904-1.781-0.5-0.878-0.577-2.035-0.731-4.35l-1.029-15.428M13.067 13.8v7.333M18.933 13.8v7.333"></path>
</symbol>
<symbol id="icon-arrow-right" viewBox="0 0 32 32">
<path stroke-linejoin="round" stroke-linecap="round" stroke-miterlimit="4" stroke-width="3.2" d="M5.333 16h21.333M26.667 16l-8-8M26.667 16l-8 8"></path>
</symbol>
<symbol id="icon-mail" viewBox="0 0 32 32">
<path d="M6.4 4.248c-0.475 0.049-1.258 0.195-1.51 0.282-0.931 0.32-1.833 0.997-2.374 1.782-0.501 0.726-0.687 1.19-0.861 2.142-0.104 0.568-0.107 0.799-0.106 7.36 0 6.487 0.016 7.271 0.161 8.026 0.23 1.199 0.982 2.337 1.995 3.023 0.658 0.445 1.16 0.646 2 0.802 0.474 0.089 1.15 0.095 10.294 0.095s9.819-0.006 10.294-0.095c0.869-0.162 1.357-0.362 2.061-0.848 0.978-0.674 1.71-1.799 1.935-2.977 0.145-0.755 0.161-1.539 0.161-8.026 0.001-6.561-0.002-6.792-0.106-7.36-0.127-0.694-0.222-1.007-0.439-1.44-0.378-0.759-0.918-1.394-1.551-1.831-0.682-0.47-1.173-0.677-2.008-0.845-0.417-0.085-1.216-0.093-10.106-0.101-5.31-0.005-9.737 0-9.84 0.010zM24.937 6.504c0.512 0.027 1.062 0.087 1.254 0.137 0.845 0.218 1.614 0.981 1.83 1.811 0.065 0.251 0.069 0.334 0.018 0.383-0.198 0.19-11.107 7.776-11.387 7.919-0.265 0.135-0.401 0.17-0.651 0.17s-0.386-0.035-0.651-0.17c-0.28-0.143-11.19-7.729-11.387-7.919-0.050-0.049-0.047-0.131 0.018-0.383 0.217-0.834 0.984-1.593 1.834-1.814 0.191-0.050 0.682-0.109 1.093-0.13 1.091-0.057 16.959-0.061 18.031-0.005zM7.097 13.826c1.77 1.24 3.216 2.273 3.211 2.298-0.005 0.024-1.456 1.351-3.225 2.949-3.099 2.799-3.218 2.899-3.25 2.755-0.051-0.229-0.053-10.255-0.001-10.255 0.025 0 1.495 1.014 3.265 2.253zM28.21 16.574c-0.002 2.75-0.019 5.090-0.040 5.202l-0.037 0.202-3.217-2.905c-1.769-1.598-3.221-2.925-3.225-2.949-0.008-0.048 6.4-4.551 6.477-4.551 0.025 0 0.043 2.249 0.042 5zM13.238 18.115c1.325 0.896 1.801 1.082 2.762 1.082 0.962 0 1.438-0.186 2.767-1.085 0.507-0.344 0.945-0.618 0.971-0.609s1.789 1.587 3.914 3.507l3.867 3.491-0.2 0.206c-0.282 0.289-0.729 0.547-1.129 0.65-0.615 0.159-2.048 0.185-10.191 0.185s-9.576-0.026-10.191-0.185c-0.401-0.103-0.847-0.361-1.129-0.651l-0.2-0.206 3.88-3.504c2.134-1.927 3.897-3.504 3.919-3.504s0.453 0.28 0.959 0.622z"></path>
</symbol>
<symbol id="icon-lock" viewBox="0 0 32 32">
<path d="M14.751 2.963c-2.978 0.502-5.406 2.654-6.24 5.535-0.257 0.886-0.297 1.331-0.297 3.257v1.783l-0.36 0.034c-1.35 0.129-2.006 0.345-2.875 0.944-0.793 0.547-1.498 1.496-1.797 2.417-0.256 0.792-0.275 1.098-0.275 4.4 0 3.301 0.019 3.607 0.275 4.4 0.304 0.939 1.032 1.904 1.858 2.462 0.658 0.445 1.16 0.647 2 0.803 0.472 0.088 1.093 0.095 8.96 0.095s8.488-0.007 8.96-0.095c0.84-0.157 1.342-0.359 2-0.803 0.826-0.558 1.554-1.522 1.858-2.462 0.256-0.793 0.275-1.099 0.275-4.4 0-3.302-0.019-3.608-0.275-4.4-0.304-0.941-1.032-1.904-1.858-2.463-0.824-0.557-1.499-0.773-2.814-0.898l-0.36-0.034v-1.783c0-1.926-0.040-2.371-0.297-3.257-0.561-1.938-1.862-3.59-3.621-4.598-0.837-0.48-1.699-0.783-2.67-0.939-0.611-0.098-1.855-0.097-2.448 0.002zM17.12 5.262c1.75 0.345 3.32 1.665 3.997 3.36 0.363 0.909 0.399 1.194 0.401 3.165l0.002 1.734h-11.040l0.002-1.734c0.002-1.97 0.038-2.256 0.401-3.165 0.871-2.181 3.074-3.599 5.383-3.465 0.25 0.015 0.634 0.062 0.854 0.105zM23.605 15.838c0.511 0.027 1.061 0.087 1.253 0.136 0.855 0.221 1.616 0.982 1.835 1.835 0.247 0.96 0.247 6.089 0 7.048-0.219 0.854-0.981 1.615-1.835 1.835-0.601 0.155-2.011 0.185-8.857 0.185s-8.256-0.030-8.857-0.185c-0.855-0.221-1.616-0.982-1.835-1.835-0.248-0.96-0.247-6.090 0-7.048 0.221-0.856 0.979-1.614 1.839-1.838 0.191-0.049 0.683-0.107 1.094-0.129 1.091-0.057 14.294-0.062 15.365-0.005z"></path>
</symbol>
<symbol id="icon-close" viewBox="0 0 32 32">
<path d="M7.626 6.245c-0.291 0.085-0.749 0.427-1.029 0.774-0.432 0.533-0.509 1.054-0.24 1.616 0.088 0.184 1.011 1.143 3.665 3.806l3.547 3.56-3.551 3.56c-3.907 3.918-3.806 3.799-3.805 4.44 0 0.449 0.157 0.77 0.586 1.199 0.429 0.43 0.75 0.586 1.199 0.586 0.634 0 0.526 0.093 4.44-3.808l3.56-3.547 3.56 3.547c3.914 3.901 3.806 3.808 4.44 3.808 0.449 0 0.77-0.157 1.199-0.586 0.43-0.429 0.586-0.75 0.586-1.199 0-0.634 0.093-0.526-3.808-4.44l-3.547-3.56 3.547-3.56c3.901-3.914 3.808-3.806 3.808-4.44 0-0.449-0.157-0.77-0.586-1.199-0.429-0.43-0.75-0.586-1.199-0.586-0.634 0-0.526-0.093-4.44 3.808l-3.56 3.547-3.56-3.547c-2.721-2.712-3.619-3.576-3.814-3.67-0.29-0.138-0.728-0.186-1-0.109z"></path>
</symbol>
<symbol id="icon-burger" viewBox="0 0 32 32">
<path d="M3.498 6.936c-0.218 0.065-0.503 0.358-0.566 0.582-0.066 0.242-0.066 0.722 0 0.965 0.066 0.235 0.349 0.515 0.591 0.585 0.25 0.072 24.699 0.072 24.959 0 0.235-0.066 0.515-0.349 0.585-0.591 0.067-0.234 0.067-0.719 0-0.953-0.070-0.242-0.35-0.525-0.585-0.591-0.239-0.066-24.762-0.064-24.984 0.003zM3.498 12.269c-0.218 0.065-0.503 0.359-0.566 0.583-0.066 0.242-0.066 0.722 0 0.965 0.066 0.235 0.349 0.515 0.591 0.585 0.25 0.072 19.367 0.071 19.625-0.001 0.235-0.065 0.517-0.349 0.585-0.59 0.067-0.234 0.067-0.719 0-0.954-0.069-0.241-0.35-0.525-0.585-0.59-0.238-0.066-19.429-0.064-19.65 0.002zM3.498 17.602c-0.218 0.065-0.503 0.359-0.566 0.582-0.066 0.242-0.066 0.722 0 0.965 0.066 0.235 0.349 0.517 0.591 0.585 0.25 0.072 24.699 0.072 24.959 0 0.235-0.065 0.515-0.349 0.585-0.59 0.067-0.235 0.067-0.72 0-0.954-0.070-0.241-0.35-0.525-0.585-0.59-0.239-0.066-24.762-0.064-24.984 0.002zM3.498 22.936c-0.218 0.065-0.503 0.358-0.566 0.582-0.066 0.242-0.066 0.722 0 0.965 0.066 0.235 0.349 0.515 0.591 0.585 0.25 0.072 19.367 0.071 19.625 0 0.235-0.066 0.517-0.349 0.585-0.591 0.067-0.234 0.067-0.719 0-0.953-0.069-0.242-0.35-0.525-0.585-0.591-0.238-0.066-19.429-0.063-19.65 0.003z"></path>
</symbol>
<symbol id="icon-user" viewBox="0 0 32 32">
<path d="M14.934 1.41c-1.812 0.263-3.367 1.044-4.64 2.333-1.083 1.093-1.79 2.424-2.146 4.030-0.167 0.755-0.167 2.366 0 3.121 0.364 1.639 1.075 2.959 2.203 4.088 1.13 1.13 2.449 1.841 4.084 2.201 0.761 0.168 2.368 0.168 3.129 0 1.635-0.36 2.954-1.071 4.084-2.201 1.127-1.127 1.841-2.452 2.201-4.083 0.167-0.761 0.167-2.37 0-3.129-0.443-2.009-1.491-3.656-3.082-4.854-0.583-0.438-1.799-1.053-2.447-1.236-1.073-0.305-2.408-0.411-3.387-0.269zM15.227 18.698c-0.088 0.012-0.389 0.049-0.667 0.081-1.021 0.118-2.321 0.515-3.33 1.021-1.662 0.832-3.158 2.169-4.189 3.747-0.408 0.625-0.931 1.721-1.169 2.454-0.317 0.968-0.537 2.216-0.539 3.027v0.307h21.332v-0.307c0-0.17-0.025-0.524-0.054-0.787-0.542-4.854-4.205-8.702-8.989-9.442-0.517-0.081-2.078-0.147-2.397-0.101z"></path>
</symbol>
<symbol id="icon-scroll-up" viewBox="0 0 32 32">
<path d="M16.187 8.061c-0.185 0.049-0.977 0.821-6.060 5.904-4.615 4.617-5.871 5.901-5.964 6.103-0.164 0.348-0.197 0.797-0.088 1.173 0.065 0.225 0.161 0.381 0.379 0.616 0.379 0.409 0.712 0.563 1.227 0.563 0.712 0 0.375 0.299 5.921-5.248l5.011-5.012 5.015 5.008c3.603 3.599 5.081 5.041 5.253 5.128 0.284 0.143 0.836 0.196 1.149 0.111 0.755-0.204 1.32-1.039 1.228-1.813-0.073-0.625 0.163-0.369-6.020-6.557-3.551-3.555-5.852-5.819-5.983-5.887-0.248-0.129-0.756-0.171-1.068-0.088z"></path>
</symbol>
</defs>
</svg>
